<svg xmlns="http://www.w3.org/2000/svg" width="1280" height="800" viewBox="0 0 1280 800">
  <rect width="1280" height="800" fill="#0a0a0a"/>
  <!-- Top bar -->
  <rect width="1280" height="48" fill="#111111"/>
  <rect x="16" y="12" width="24" height="24" rx="6" fill="#ffffff"/>
  <text x="48" y="30" font-family="system-ui" font-size="14" font-weight="bold" fill="#ffffff">ExoGen</text>
  <text x="140" y="30" font-family="system-ui" font-size="12" fill="#666">Model Browser</text>
  <!-- Search bar -->
  <rect x="40" y="72" width="1200" height="40" rx="8" fill="#1a1a1a" stroke="#222" stroke-width="1"/>
  <text x="60" y="97" font-family="system-ui" font-size="13" fill="#555">Search models on HuggingFace...</text>
  <!-- Model cards grid -->
  <rect x="40" y="132" width="380" height="200" rx="8" fill="#111" stroke="#222" stroke-width="1"/>
  <rect x="52" y="144" width="356" height="120" rx="4" fill="#1a1a2e"/>
  <text x="60" y="290" font-family="system-ui" font-size="13" font-weight="600" fill="#ddd">Stable Diffusion XL</text>
  <text x="60" y="310" font-family="system-ui" font-size="11" fill="#666">6.5 GB • stabilityai</text>
  
  <rect x="440" y="132" width="380" height="200" rx="8" fill="#111" stroke="#222" stroke-width="1"/>
  <rect x="452" y="144" width="356" height="120" rx="4" fill="#1e1a2e"/>
  <text x="460" y="290" font-family="system-ui" font-size="13" font-weight="600" fill="#ddd">Dreamshaper v8</text>
  <text x="460" y="310" font-family="system-ui" font-size="11" fill="#666">2.1 GB • Lykon</text>
  
  <rect x="840" y="132" width="380" height="200" rx="8" fill="#111" stroke="#222" stroke-width="1"/>
  <rect x="852" y="144" width="356" height="120" rx="4" fill="#1a2e1e"/>
  <text x="860" y="290" font-family="system-ui" font-size="13" font-weight="600" fill="#ddd">Realistic Vision v6</text>
  <text x="860" y="310" font-family="system-ui" font-size="11" fill="#666">2.0 GB • SG161222</text>
  
  <rect x="40" y="352" width="380" height="200" rx="8" fill="#111" stroke="#222" stroke-width="1"/>
  <rect x="52" y="364" width="356" height="120" rx="4" fill="#2e1a1a"/>
  <text x="60" y="510" font-family="system-ui" font-size="13" font-weight="600" fill="#ddd">FLUX.1 Dev</text>
  <text x="60" y="530" font-family="system-ui" font-size="11" fill="#666">12.1 GB • black-forest-labs</text>
  
  <rect x="440" y="352" width="380" height="200" rx="8" fill="#111" stroke="#222" stroke-width="1"/>
  <rect x="452" y="364" width="356" height="120" rx="4" fill="#2e2e1a"/>
  <text x="460" y="510" font-family="system-ui" font-size="13" font-weight="600" fill="#ddd">Juggernaut XL</text>
  <text x="460" y="530" font-family="system-ui" font-size="11" fill="#666">6.5 GB • RunDiffusion</text>
  
  <rect x="840" y="352" width="380" height="200" rx="8" fill="#111" stroke="#222" stroke-width="1"/>
  <rect x="852" y="364" width="356" height="120" rx="4" fill="#1a2e2e"/>
  <text x="860" y="510" font-family="system-ui" font-size="13" font-weight="600" fill="#ddd">CyberRealistic v4</text>
  <text x="860" y="530" font-family="system-ui" font-size="11" fill="#666">2.0 GB • Cyberdelia</text>
</svg>
